<svg width="329" height="84" viewBox="0 0 329 84" fill="none" xmlns="http://www.w3.org/2000/svg">
<path d="M76.3376 35.5139C77.2322 35.5139 77.5303 35.8259 77.5303 36.6659V55.6739H87.6437C88.5134 55.6739 88.8364 55.9859 88.8364 56.8259V58.5059C88.8364 59.3459 88.5134 59.6579 87.6437 59.6579H74.3249C73.4552 59.6579 73.1073 59.3459 73.1073 58.5059V36.6659C73.1073 35.8259 73.4552 35.5139 74.3249 35.5139H76.3376Z" fill="#1A202C"/>
<path d="M97.6576 43.8899C97.6576 38.3459 101.285 35.0099 107.597 35.0099C113.909 35.0099 117.536 38.3459 117.536 43.8899V51.2819C117.536 56.8259 113.884 60.1619 107.597 60.1619C101.31 60.1619 97.6576 56.8259 97.6576 51.2819V43.8899ZM113.362 43.8899C113.362 40.7699 111.349 39.0899 107.721 39.0899C104.093 39.0899 102.105 40.7939 102.105 43.8899V51.3299C102.105 54.4739 104.093 56.1299 107.721 56.1299C111.349 56.1299 113.362 54.4019 113.362 51.3299V43.8899Z" fill="#1A202C"/>
<path d="M147.131 46.4339C148.1 46.4339 148.324 46.7459 148.324 47.5859V52.1459C148.35 53.2199 148.127 54.2862 147.671 55.2661C147.215 56.2463 146.539 57.1153 145.69 57.8099C143.582 59.4311 140.924 60.2353 138.235 60.0659C131.799 60.0659 128.296 56.7299 128.296 51.1859V43.7459C128.296 38.2739 131.924 34.9139 138.235 34.9139C143.205 34.9139 146.435 36.8099 147.802 40.6019C147.878 40.7444 147.919 40.9021 147.922 41.0624C147.924 41.223 147.887 41.3819 147.815 41.5261C147.743 41.6706 147.636 41.7968 147.505 41.8948C147.373 41.9924 147.219 42.0594 147.056 42.0899L145.118 42.7379C144.273 43.0259 143.925 42.8579 143.627 42.0179C143.216 40.9928 142.462 40.1293 141.485 39.5644C140.509 38.9994 139.365 38.7647 138.235 38.8979C134.582 38.8979 132.595 40.6019 132.595 43.6979V51.3299C132.595 54.4739 134.607 56.1299 138.235 56.1299C141.863 56.1299 144.099 54.5219 144.099 52.1699V50.3939H138.707C137.813 50.3939 137.49 50.0579 137.49 49.2179V47.5859C137.49 46.7459 137.813 46.4339 138.707 46.4339H147.131Z" fill="#1A202C"/>
<path d="M158.586 43.8899C158.586 38.3459 162.214 35.0099 168.525 35.0099C174.837 35.0099 178.465 38.3459 178.465 43.8899V51.2819C178.465 56.8259 174.812 60.1619 168.525 60.1619C162.239 60.1619 158.586 56.8259 158.586 51.2819V43.8899ZM174.265 43.8899C174.265 40.7699 172.253 39.0899 168.65 39.0899C165.047 39.0899 163.009 40.7939 163.009 43.8899V51.3299C163.009 54.4739 165.022 56.1299 168.65 56.1299C172.278 56.1299 174.265 54.4019 174.265 51.3299V43.8899Z" fill="#1A202C"/>
<path d="M190.168 36.2099C190.168 35.6819 190.342 35.5139 190.889 35.5139H192.032C192.579 35.5139 192.703 35.6819 192.703 36.2099V58.9619C192.703 59.4899 192.703 59.6579 192.032 59.6579H190.889C190.342 59.6579 190.168 59.4899 190.168 58.9619V36.2099Z" fill="#1A202C"/>
<path d="M215.34 35.5139C217.409 35.5139 219.394 36.3078 220.857 37.7211C222.32 39.1343 223.142 41.0511 223.142 43.0499C223.142 45.0486 222.32 46.9655 220.857 48.3786C219.394 49.7919 217.409 50.5859 215.34 50.5859H207.885V58.9619C207.885 59.4899 207.761 59.6579 207.239 59.6579H206.071C205.55 59.6579 205.351 59.4899 205.351 58.9619V36.2099C205.351 35.6819 205.55 35.5139 206.071 35.5139H215.34ZM215.116 48.2099C215.828 48.2099 216.532 48.0745 217.189 47.8117C217.846 47.5487 218.444 47.1632 218.947 46.6775C219.45 46.1917 219.849 45.6147 220.121 44.9802C220.393 44.3454 220.533 43.665 220.533 42.9779C220.533 42.2907 220.393 41.6103 220.121 40.9755C219.849 40.341 219.45 39.764 218.947 39.2783C218.444 38.7925 217.846 38.4071 217.189 38.144C216.532 37.8812 215.828 37.7459 215.116 37.7459H207.662V48.2099H215.116Z" fill="#1A202C"/>
<path d="M242.549 35.0339C244.468 34.8294 246.403 35.228 248.069 36.1705C249.733 37.1132 251.04 38.5494 251.793 40.2659C251.992 40.6499 251.793 40.9619 251.395 41.1539L250.302 41.6339C249.855 41.8019 249.681 41.7779 249.407 41.3219C248.844 40.0479 247.876 38.9799 246.643 38.2724C245.411 37.5649 243.977 37.2543 242.549 37.3859C238.35 37.3859 236.064 38.9939 236.064 41.8739C236.039 42.7539 236.345 43.6131 236.925 44.2923C237.505 44.9715 238.32 45.4254 239.219 45.5699C240.556 45.9908 241.942 46.2488 243.344 46.3379C245.042 46.4252 246.717 46.7569 248.314 47.3219C249.539 47.696 250.593 48.4655 251.298 49.5013C252.004 50.5371 252.32 51.776 252.19 53.0099C252.19 57.4979 248.811 60.2099 242.599 60.2099C240.561 60.435 238.505 59.979 236.774 58.9177C235.042 57.8567 233.739 56.2542 233.082 54.3779C233.038 54.2924 233.014 54.1986 233.012 54.1031C233.01 54.0075 233.03 53.913 233.071 53.8259C233.111 53.7387 233.171 53.6612 233.246 53.5991C233.321 53.5367 233.409 53.4913 233.504 53.4659L234.598 53.0819C234.684 53.0478 234.776 53.0315 234.869 53.0339C234.962 53.0363 235.054 53.0574 235.138 53.0958C235.222 53.1342 235.297 53.1889 235.358 53.2568C235.419 53.3247 235.465 53.4039 235.492 53.4899C236.048 54.8456 237.037 55.9952 238.314 56.7721C239.592 57.5487 241.093 57.9123 242.599 57.8099C247.295 57.8099 249.606 56.2259 249.606 53.0099C249.651 52.1646 249.383 51.3315 248.849 50.6591C248.317 49.9868 247.555 49.5186 246.699 49.3379C245.413 48.9675 244.087 48.7419 242.748 48.6659L240.064 48.3299C239.224 48.1578 238.395 47.9413 237.58 47.6819C236.774 47.4469 236.023 47.0639 235.368 46.5539C234.709 45.9774 234.189 45.2679 233.846 44.4757C233.502 43.6835 233.343 42.8281 233.38 41.9699C233.554 37.7699 236.809 35.0339 242.549 35.0339Z" fill="#1A202C"/>
<path d="M265.584 51.4499C265.688 53.1471 266.461 54.7415 267.743 55.9071C269.025 57.0728 270.72 57.7218 272.479 57.7218C274.238 57.7218 275.933 57.0728 277.215 55.9071C278.497 54.7415 279.268 53.1471 279.374 51.4499V36.2099C279.374 35.6819 279.548 35.5139 280.095 35.5139H281.238C281.785 35.5139 281.959 35.6819 281.959 36.2099V51.4259C281.959 56.8739 278.629 60.1619 272.491 60.1619C266.354 60.1619 263.024 56.8739 263.024 51.4259V36.2099C263.024 35.6819 263.198 35.5139 263.72 35.5139H264.888C265.41 35.5139 265.584 35.6819 265.584 36.2099V51.4499Z" fill="#1A202C"/>
<path d="M316.25 35.5139C316.796 35.5139 316.97 35.6819 316.97 36.2099V58.9619C316.97 59.4899 316.796 59.6579 316.25 59.6579H315.206C314.684 59.6579 314.51 59.4899 314.51 58.9619V45.1139C314.51 43.0991 314.652 41.0864 314.933 39.0899H314.784C314.008 40.9155 313.102 42.6877 312.075 44.3939L306.733 53.4899C306.668 53.6478 306.554 53.7827 306.407 53.877C306.261 53.9711 306.089 54.0203 305.913 54.0179H305.217C305.038 54.0188 304.864 53.9691 304.713 53.8755C304.564 53.7817 304.444 53.6478 304.372 53.4899L298.955 44.2979C297.994 42.6162 297.164 40.8673 296.47 39.0659H296.321C296.575 41.0807 296.709 43.1082 296.719 45.1379V58.9619C296.719 59.4899 296.545 59.6579 295.998 59.6579H295.029C294.483 59.6579 294.309 59.4899 294.309 58.9619V36.2099C294.309 35.6819 294.483 35.5139 295.029 35.5139H295.924C296.128 35.4956 296.334 35.5386 296.51 35.6375C296.689 35.7363 296.831 35.8861 296.918 36.0659L305.615 50.9939L314.262 36.2099C314.535 35.7059 314.684 35.6339 315.231 35.6339L316.25 35.5139Z" fill="#1A202C"/>
<path d="M32.1321 56.0098V73.3619C32.1321 74.0271 31.8585 74.6651 31.3714 75.1352C30.8847 75.6056 30.2242 75.8699 29.5354 75.8699C28.8468 75.8699 28.1864 75.6056 27.6993 75.1352C27.2123 74.6651 26.9387 74.0271 26.9387 73.3619V56.0338C27.6618 56.5438 28.5285 56.8285 29.4236 56.8498C30.3991 56.8767 31.355 56.5803 32.1321 56.0098ZM54.2472 50.9939C53.5882 50.9939 52.9561 51.2468 52.4902 51.6968C52.0243 52.1468 51.7624 52.7574 51.7624 53.3938V56.4178C51.7624 57.0831 52.0359 57.7211 52.523 58.1912C53.0098 58.6616 53.6702 58.9258 54.359 58.9258C55.0478 58.9258 55.7083 58.6616 56.1951 58.1912C56.6821 57.7211 56.9557 57.0831 56.9557 56.4178V53.5138C56.9751 53.1697 56.9174 52.8255 56.7867 52.5049C56.656 52.1842 56.4555 51.8943 56.1983 51.6553C55.9414 51.4162 55.634 51.2334 55.2976 51.1191C54.9609 51.0051 54.6025 50.9624 54.2472 50.9939ZM21.2981 62.5858C20.404 62.5599 19.5384 62.2758 18.8133 61.7699V79.1699C18.8133 79.8383 19.0881 80.4793 19.5775 80.9519C20.0668 81.4244 20.7304 81.6898 21.4224 81.6898C22.1143 81.6898 22.778 81.4244 23.2673 80.9519C23.7566 80.4793 24.0315 79.8383 24.0315 79.1699V61.8899C23.22 62.3965 22.2626 62.6403 21.2981 62.5858ZM46.1466 45.7859C45.8099 45.7695 45.4735 45.8197 45.1574 45.933C44.8416 46.0462 44.5528 46.2205 44.3086 46.4449C44.0646 46.6695 43.8705 46.9395 43.7378 47.2388C43.6054 47.5381 43.537 47.8604 43.5375 48.1858V61.5539C43.5375 62.2223 43.8123 62.8633 44.3016 63.3358C44.7911 63.8084 45.4546 64.0738 46.1466 64.0738C46.8386 64.0738 47.5023 63.8084 47.9916 63.3358C48.4809 62.8633 48.7557 62.2223 48.7557 61.5539V48.3538C48.7756 48.0075 48.7174 47.6612 48.5852 47.3386C48.453 47.0161 48.2503 46.725 47.9904 46.4855C47.7304 46.2459 47.4201 46.0635 47.0804 45.9512C46.7407 45.8386 46.3797 45.7986 46.0224 45.8338L46.1466 45.7859ZM37.8969 50.9218C36.9609 50.9156 36.0499 50.6307 35.2878 50.1058V67.5539C35.2878 68.2223 35.5626 68.8633 36.0519 69.3359C36.5414 69.8084 37.2049 70.0738 37.8969 70.0738C38.5889 70.0738 39.2524 69.8084 39.7419 69.3359C40.2312 68.8633 40.506 68.2223 40.506 67.5539V50.1298C39.7178 50.697 38.7554 50.9926 37.7727 50.9698L37.8969 50.9218ZM15.6575 64.2898V15.5458C15.651 14.9517 15.402 14.384 14.9647 13.9661C14.5273 13.5482 13.937 13.3138 13.3218 13.3138H12.7751C12.1599 13.3138 11.5695 13.5482 11.1322 13.9661C10.6948 14.384 10.4459 14.9517 10.4393 15.5458V64.2898C10.4393 64.8882 10.6854 65.462 11.1235 65.8851C11.5615 66.3083 12.1556 66.5459 12.7751 66.5459H13.3218C13.9413 66.5459 14.5354 66.3083 14.9734 65.8851C15.4114 65.462 15.6575 64.8882 15.6575 64.2898ZM21.5715 60.7379H21.0248C20.4053 60.7379 19.8112 60.5002 19.3732 60.0771C18.9351 59.654 18.689 59.0802 18.689 58.4818V21.3538C18.6956 20.7597 18.9445 20.192 19.3819 19.7741C19.8192 19.3562 20.4096 19.1218 21.0248 19.1218H21.5715C22.1867 19.1218 22.777 19.3562 23.2144 19.7741C23.6517 20.192 23.9007 20.7597 23.9072 21.3538V58.5299C23.9072 59.1282 23.6611 59.702 23.2231 60.1251C22.7851 60.5482 22.1909 60.7859 21.5715 60.7859V60.7379ZM29.7963 55.0258H29.2248C28.612 55.0258 28.0241 54.7906 27.5908 54.3721C27.1574 53.9535 26.9139 53.3859 26.9139 52.7938V27.1138C26.9106 26.8187 26.968 26.5259 27.0826 26.2523C27.1972 25.9787 27.3669 25.7299 27.5818 25.5201C27.7967 25.3102 28.0527 25.1437 28.3347 25.03C28.6167 24.9164 28.9192 24.8578 29.2248 24.8578H29.7963C30.4116 24.8642 30.9992 25.1046 31.4318 25.527C31.8647 25.9494 32.1072 26.5197 32.1072 27.1138V52.7938C32.1072 53.3859 31.8637 53.9535 31.4303 54.3721C30.997 54.7906 30.4093 55.0258 29.7963 55.0258ZM38.0212 49.1458H37.4993C36.8841 49.1458 36.2937 48.9116 35.8564 48.4935C35.419 48.0757 35.17 47.5081 35.1636 46.9138V33.0898C35.1432 32.7817 35.1884 32.4728 35.2968 32.1822C35.4049 31.8918 35.5738 31.6256 35.7927 31.4007C36.0117 31.1756 36.276 30.9966 36.5698 30.8742C36.8632 30.752 37.1795 30.6891 37.4993 30.6898H38.046C38.6655 30.6898 39.2596 30.9274 39.6977 31.3506C40.1358 31.7737 40.3818 32.3475 40.3818 32.9458V46.8658C40.385 47.1642 40.3271 47.4601 40.2111 47.7366C40.0953 48.013 39.9238 48.2646 39.7064 48.4767C39.4892 48.6886 39.2308 48.8569 38.9455 48.9718C38.6605 49.0868 38.3549 49.1458 38.046 49.1458H38.0212ZM46.2709 43.9858H45.7242C45.1047 43.9858 44.5106 43.7482 44.0725 43.3251C43.6344 42.902 43.3884 42.3282 43.3884 41.7298V38.1538C43.3949 37.5596 43.6439 36.992 44.0812 36.5742C44.5185 36.1561 45.1089 35.9218 45.7242 35.9218H46.2709C46.8861 35.9218 47.4765 36.1561 47.9138 36.5742C48.3512 36.992 48.6001 37.5596 48.6066 38.1538V41.7298C48.6066 42.3241 48.3641 42.8943 47.9312 43.3167C47.4986 43.7391 46.9109 43.9796 46.2957 43.9858H46.2709Z" fill="#1A202C"/>
</svg>
