<svg width="231" height="80" viewBox="0 0 231 80" fill="none" xmlns="http://www.w3.org/2000/svg">
<g clip-path="url(#clip0_31_3121)">
<path d="M23.4144 40.6093C23.3498 42.0677 23.3176 43.9141 23.3176 46.1483C23.3176 48.3826 23.3498 50.2443 23.4144 51.7339C23.4788 53.1924 23.6078 54.356 23.8013 55.2249C24.0271 56.0937 24.3335 56.6988 24.7206 57.0403C25.1399 57.3815 25.6882 57.5523 26.3657 57.5523C27.0429 57.5523 27.5751 57.3815 27.9622 57.0403C28.3815 56.6988 28.6879 56.0937 28.8815 55.2249C29.1073 54.356 29.2523 53.1924 29.3169 51.7339C29.3815 50.2443 29.4137 48.3826 29.4137 46.1483C29.4137 43.9141 29.3815 42.0677 29.3169 40.6093C29.2523 39.1198 29.1073 37.9405 28.8815 37.0718C28.6879 36.2028 28.3815 35.5977 27.9622 35.2564C27.5751 34.915 27.0429 34.7443 26.3657 34.7443C25.6882 34.7443 25.1399 34.915 24.7206 35.2564C24.3335 35.5977 24.0271 36.2028 23.8013 37.0718C23.6078 37.9405 23.4788 39.1198 23.4144 40.6093Z" fill="#1A202C"/>
<path fill-rule="evenodd" clip-rule="evenodd" d="M25.1287 11.5707C13.4628 11.8108 4.18987 21.0725 4.37705 32.297L4.60705 46.0883L4.37705 59.8796C4.18987 71.1043 13.4628 80.3659 25.1287 80.6059L39.4659 80.9011L53.803 80.6059C65.4689 80.3659 74.742 71.1043 74.5548 59.8796L74.3248 46.0883L74.5548 32.297C74.742 21.0725 65.4689 11.8108 53.803 11.5707L39.4659 11.2757L25.1287 11.5707ZM39.9612 63.6498L34.5424 68.1649L29.6075 63.0447C29.2204 63.1068 28.8333 63.1535 28.4464 63.1845C28.0915 63.2464 27.6883 63.2776 27.2368 63.2776H26.3659C24.0758 63.2776 22.1405 62.9828 20.56 62.3932C18.9796 61.8035 17.7056 60.826 16.738 59.4607C15.7704 58.0643 15.0768 56.28 14.6575 54.1079C14.2382 51.9046 14.0286 49.2514 14.0286 46.1484C14.0286 43.0452 14.2382 40.4076 14.6575 38.2354C15.0768 36.0321 15.7704 34.248 16.738 32.8825C17.7056 31.4861 18.9796 30.4776 20.56 29.857C22.1405 29.2052 24.0758 28.8794 26.3659 28.8794C28.656 28.8794 30.5912 29.2052 32.1717 29.857C33.7521 30.4776 35.0263 31.4861 35.9939 32.8825C36.9615 34.248 37.655 36.0321 38.0744 38.2354C38.4937 40.4076 38.7033 43.0452 38.7033 46.1484C38.7033 49.3445 38.4776 52.0442 38.0259 54.2474C37.5744 56.4507 36.8325 58.2505 35.8004 59.6469L39.9612 63.6498ZM55.2336 41.4936V39.6318C55.2336 37.7388 55.04 36.451 54.6529 35.7685C54.266 35.0857 53.637 34.7443 52.766 34.7443C52.0888 34.7443 51.5405 34.915 51.1212 35.2565C50.7341 35.5977 50.4277 36.2028 50.2019 37.0718C50.0083 37.9405 49.8794 39.1198 49.8148 40.6093C49.7502 42.0677 49.718 43.9142 49.718 46.1484C49.718 48.3826 49.7502 50.2444 49.8148 51.7339C49.8794 53.1925 50.0083 54.356 50.2019 55.225C50.4277 56.0937 50.7341 56.6989 51.1212 57.0403C51.5405 57.3816 52.0888 57.5523 52.766 57.5523C53.3143 57.5523 53.766 57.4282 54.1207 57.1799C54.4757 56.9006 54.7497 56.4507 54.9433 55.8301C55.1368 55.2095 55.2658 54.387 55.3304 53.363C55.4271 52.308 55.4754 50.9892 55.4754 49.4066H64.1841V51.8737C64.1841 54.201 63.8616 56.1094 63.2165 57.5988C62.5715 59.0883 61.7168 60.2675 60.6524 61.1363C59.5878 61.9743 58.3623 62.5327 56.9752 62.812C55.6207 63.1223 54.2175 63.2776 52.766 63.2776C50.2502 63.2776 48.186 62.9828 46.5732 62.3932C44.9606 61.8035 43.7026 60.826 42.7994 59.4607C41.8962 58.0643 41.2673 56.28 40.9126 54.1079C40.59 51.9046 40.4287 49.2514 40.4287 46.1484C40.4287 42.9831 40.6222 40.299 41.0093 38.0958C41.4286 35.8925 42.1222 34.1082 43.0898 32.7429C44.0574 31.3775 45.3314 30.4 46.9118 29.8103C48.4923 29.1897 50.4437 28.8794 52.766 28.8794C54.7982 28.8794 56.5237 29.1278 57.943 29.6243C59.3621 30.1208 60.5071 30.8345 61.3781 31.7654C62.2811 32.6653 62.9262 33.7669 63.3133 35.0703C63.7326 36.3424 63.9423 37.7855 63.9423 39.3991V41.4936H55.2336Z" fill="#1A202C"/>
<path fill-rule="evenodd" clip-rule="evenodd" d="M116.836 34.9972L124.723 42.8721L132.611 34.9972H146.315L131.565 48.4971L146.315 61.9969H132.611L124.723 54.1019L116.836 61.9969H103.111L117.861 48.4971L103.111 34.9972H116.836ZM116.075 48.4971L100.033 33.8144H117.36L124.723 41.1657L132.086 33.8144H148.795V33.7943H177.113C183.589 33.7307 189.07 38.9402 188.981 45.1909C188.98 47.4393 188.348 49.5118 187.083 51.3564C186.131 52.7526 184.925 53.9014 183.479 54.7749L189.518 62.2338V57.3965C189.518 53.6066 192.462 51.1904 195.848 49.588C199.268 47.9703 203.583 46.9596 207.176 46.1419L207.182 46.1407L207.222 46.1308C209.437 45.6068 211.323 45.1606 212.666 44.6794C213.346 44.4355 213.791 44.2148 214.046 44.0272C214.078 44.0034 214.105 43.9822 214.128 43.964C214.05 43.8953 213.89 43.7926 213.577 43.6743C212.847 43.3991 211.599 43.1918 209.71 43.1913C207.691 43.2114 205.975 43.3693 204.804 43.7645C204.227 43.9594 203.878 44.1814 203.682 44.3897C203.516 44.5686 203.417 44.7809 203.425 45.1138L203.456 46.3251H189.956V45.1422C189.956 42.714 190.452 40.6837 191.442 39.0202C192.439 37.3492 193.889 36.1291 195.659 35.2541C199.13 33.5371 203.912 33.1113 209.244 33.1113C214.704 33.1113 219.237 33.7174 222.446 35.2779C224.071 36.0687 225.39 37.1211 226.298 38.4898C227.207 39.8621 227.653 41.4774 227.653 43.3142C227.653 46.7131 225.521 48.8781 222.908 50.2891C220.371 51.6592 217.178 52.4372 214.526 53.0597H227.193V63.1397H190.25L190.266 63.1598H175.468L170.175 56.5705H162.222V63.1598H149.37L149.393 63.1799H132.086L124.723 55.8107L117.361 63.1799H100.033L116.075 48.4971ZM148.795 62.6321V34.362L133.35 48.4971L148.795 62.6321ZM170.781 55.3877L176.075 61.9768H187.748L181.618 54.4032C182.002 54.2321 182.368 54.0428 182.72 53.8359C184.061 53.0457 185.176 51.996 186.053 50.7068C187.184 49.0595 187.748 47.2114 187.748 45.1824C187.833 39.5976 182.917 34.9169 177.121 34.9771H150.027V61.9768H160.989V55.3877H170.781ZM208.073 54.2425C208.457 53.7909 209.152 53.4069 210.076 53.0597C211.164 52.6498 212.565 52.291 214.14 51.9324C219.538 50.6667 226.422 48.939 226.422 43.3142C226.422 36.7249 220.062 34.2941 209.244 34.2941C199.073 34.2941 191.86 35.8883 191.234 43.9593C191.204 44.3392 191.188 44.7332 191.188 45.1422H202.194C202.192 45.0977 202.192 45.0537 202.194 45.0105C202.254 42.6107 205.697 42.0478 209.704 42.0083C213.616 42.0083 215.416 42.852 215.416 43.9972C215.416 45.4107 211.944 46.2323 207.585 47.2636L207.466 47.2917C200.227 48.939 190.749 51.2292 190.749 57.3965V61.9567H225.96V54.2425H208.073ZM214.197 44.0548C214.197 44.0548 214.189 44.0473 214.186 44.0299C214.197 44.0456 214.197 44.0548 214.197 44.0548ZM175.534 45.1824C175.534 44.5501 175.017 44.0551 174.359 44.0551H162.222V46.2896H174.359C174.713 46.2896 174.96 46.1863 175.181 45.9732C175.434 45.7305 175.534 45.4878 175.534 45.1824ZM176.765 45.1824C176.765 43.8966 175.698 42.8721 174.359 42.8721H160.989V47.4725H174.359C175.028 47.4725 175.594 47.2515 176.054 46.8096C176.535 46.3475 176.765 45.8052 176.765 45.1824Z" fill="#1A202C"/>
<path d="M104.125 81.4754H109.376V74.5584L114.637 81.4754H117.262L122.523 74.5584V81.4754H127.774V68.5096H121.211L115.95 74.9925L110.699 68.5096H104.125V81.4754Z" fill="#1A202C"/>
<path d="M138.836 68.1913C133.766 68.201 129.618 69.6093 129.638 74.5198V75.4652C129.618 80.3659 133.766 81.7841 138.836 81.7937C143.896 81.7841 148.045 80.3659 148.026 75.4652V74.5198C148.026 69.619 143.907 68.1913 138.836 68.1913ZM142.774 75.1469C142.805 77.2692 140.98 77.6551 138.836 77.684C136.682 77.6551 134.858 77.2692 134.888 75.1469V74.8286C134.858 72.7157 136.682 72.3298 138.836 72.3009C140.98 72.3298 142.805 72.7157 142.774 74.8286V75.1469Z" fill="#1A202C"/>
<path d="M162.735 75.0119C162.735 76.3142 161.964 77.385 160.601 77.385H154.849V72.6386H160.601C161.964 72.6386 162.735 73.6997 162.735 75.0119ZM149.598 68.529V81.4946H161.583C165.281 81.5429 168.027 78.533 167.997 75.0119C168.027 71.4713 165.281 68.4806 161.583 68.529H149.598Z" fill="#1A202C"/>
<path d="M182.616 75.1566C182.646 77.2885 180.824 77.6551 178.678 77.684C176.524 77.6551 174.711 77.2885 174.73 75.1566V68.5096H169.479V75.4749C169.46 80.3756 173.628 81.7841 178.678 81.7937C183.729 81.7841 187.897 80.3756 187.878 75.4749V68.5096H182.616V75.1566Z" fill="#1A202C"/>
<path d="M190.241 68.5096V81.4754H206.005V77.3658H195.492V68.5096H190.241Z" fill="#1A202C"/>
<path d="M207.797 81.4945H223.561V78.1664H213.048V76.507H223.561V73.5068H213.048V71.8474H223.561V68.5289H207.797V81.4945Z" fill="#1A202C"/>
<path d="M107.149 19.115V16.3826H114.931C115.308 16.3826 115.637 16.5138 115.904 16.7882C116.184 17.0508 116.318 17.3729 116.318 17.7547C116.318 18.1247 116.184 18.4468 115.904 18.7213C115.637 18.9838 115.308 19.115 114.931 19.115H107.149ZM100.777 11.6934V27.7298H107.149V23.8161H116.524C119.893 23.864 122.751 21.0599 122.702 17.7547C122.751 14.4377 119.893 11.6575 116.524 11.6934H100.777Z" fill="#1A202C"/>
<path d="M135.385 11.2757C129.232 11.2876 124.198 13.0297 124.222 19.1031V20.2725C124.198 26.3339 129.232 28.0878 135.385 28.0997C141.525 28.0878 146.561 26.3339 146.536 20.2725V19.1031C146.536 13.0417 141.538 11.2757 135.385 11.2757ZM140.163 19.8786C140.2 22.5036 137.987 22.9809 135.385 23.0168C132.771 22.9809 130.557 22.5036 130.594 19.8786V19.4849C130.557 16.8718 132.771 16.3945 135.385 16.3588C137.987 16.3945 140.2 16.8718 140.163 19.4849V19.8786Z" fill="#1A202C"/>
<path d="M171.38 21.8475L167.597 11.6934H160.423L156.629 21.8475L152.847 11.6934H145.673L152.847 27.7298H160.423L164.011 19.7116L167.597 27.7298H175.173L182.349 11.6934H175.173L171.38 21.8475Z" fill="#1A202C"/>
<path d="M182.835 27.7298H201.962V23.6134H189.206V21.561H201.962V17.8502H189.206V15.7979H201.962V11.6934H182.835V27.7298Z" fill="#1A202C"/>
<path d="M205.356 11.6813V27.7179H211.727V23.8042H217.418L220.495 27.7179H227.28L223.717 23.2195C224.787 22.7303 225.651 21.9906 226.295 21.0241C226.953 20.0457 227.28 18.948 227.28 17.7428C227.33 14.4257 224.47 11.6456 221.104 11.6813H205.356ZM219.497 16.3707C220.276 16.3707 220.897 16.9792 220.897 17.7428C220.897 18.1126 220.762 18.4348 220.483 18.7092C220.215 18.9719 219.886 19.1031 219.497 19.1031H211.727V16.3707H219.497Z" fill="#1A202C"/>
</g>
<defs>
<clipPath id="clip0_31_3121">
<rect width="230" height="80" fill="white" transform="translate(0.5)"/>
</clipPath>
</defs>
</svg>
