<svg width="400" height="112" viewBox="0 0 400 112" fill="none" xmlns="http://www.w3.org/2000/svg">
<path fill-rule="evenodd" clip-rule="evenodd" d="M66.8452 15.2159C63.1201 11.5804 57.082 11.5816 53.3585 15.2186L22.2831 45.5717L22.2566 45.5641L22.1584 45.5743C22.1988 45.5933 22.2385 45.6121 22.2774 45.6311C16.8261 46.1886 14.5132 47.788 14.4871 49.842C14.4963 50.6061 14.8174 51.4312 15.4071 52.2878L15.3788 52.3155C20.3345 59.6133 44.8853 69.2402 62.2542 62.7176C49.2369 69.0724 18.5804 70.3319 9.57604 57.9934C7.6206 60.0589 6.80245 62.7732 7.11055 65.3815C9.48924 78.1822 36.0831 81.6744 62.6772 63.1279L68.432 68.7467C61.271 75.9297 50.6932 117.653 66.4106 111.283C66.7834 111.036 67.0998 110.815 67.5303 110.497L68.2308 109.851C68.1904 109.861 68.1502 109.87 68.1103 109.879L110.205 71.0794C114.113 67.4767 114.202 61.4338 110.4 57.7234L66.8452 15.2159ZM62.2612 27.8604L63.6999 22.2417L65.1385 27.8604L69.4547 29.2651L65.1385 30.6698L63.6999 36.2886L62.2612 30.6698L57.945 29.2651L62.2612 27.8604ZM44.4536 46.2025L45.4127 42.4566L46.3718 46.2025L49.2493 47.1389L46.3718 48.0753L45.4127 51.8213L44.4536 48.0753L41.5763 47.1389L44.4536 46.2025ZM77.8589 77.7984L76.8998 81.5441L74.0225 82.4808L76.8998 83.4172L77.8589 87.1629L78.818 83.4172L81.6955 82.4808L78.818 81.5441L77.8589 77.7984Z" fill="#1A202C"/>
<path d="M137.402 36.0366H128.469V75.3904H153.198V67.6792H137.402V36.0366Z" fill="#1A202C"/>
<path d="M154.051 62.042C154.051 70.4447 159.825 76.0286 168.54 76.0286C177.201 76.0286 182.974 70.4447 182.974 62.042C182.974 53.6393 177.201 48.0023 168.54 48.0023C159.825 48.0023 154.051 53.6393 154.051 62.042ZM162.494 61.9889C162.494 58.0003 164.89 55.3412 168.54 55.3412C172.135 55.3412 174.532 58.0003 174.532 61.9889C174.532 66.0307 172.135 68.6897 168.54 68.6897C164.89 68.6897 162.494 66.0307 162.494 61.9889Z" fill="#1A202C"/>
<path d="M184.324 61.6167C184.324 69.6468 189.662 75.0713 197.233 75.0713C200.882 75.0713 204.041 73.795 205.621 71.721V75.3905C205.621 79.0599 203.279 81.5064 199.139 81.5064C195.435 81.5064 192.875 79.8045 192.712 76.7732H184.215C184.977 84.059 190.751 88.9517 198.649 88.9517C207.963 88.9517 213.846 83.0486 213.846 73.6886V48.8H206.275L205.839 51.5121C204.314 49.3317 201.1 47.8959 197.396 47.8959C189.771 47.8959 184.324 53.4799 184.324 61.6167ZM192.821 61.4039C192.821 57.5749 195.435 55.0221 198.758 55.0221C202.625 55.0221 205.458 57.5216 205.458 61.4039C205.458 65.2861 202.68 67.9452 198.813 67.9452C195.49 67.9452 192.821 65.2861 192.821 61.4039Z" fill="#1A202C"/>
<path d="M216.291 62.042C216.291 70.4447 222.064 76.0286 230.779 76.0286C239.44 76.0286 245.214 70.4447 245.214 62.042C245.214 53.6393 239.44 48.0023 230.779 48.0023C222.064 48.0023 216.291 53.6393 216.291 62.042ZM224.733 61.9889C224.733 58.0003 227.13 55.3412 230.779 55.3412C234.374 55.3412 236.771 58.0003 236.771 61.9889C236.771 66.0307 234.374 68.6897 230.779 68.6897C227.13 68.6897 224.733 66.0307 224.733 61.9889Z" fill="#1A202C"/>
<path d="M252.446 44.6518C255.06 44.6518 257.184 42.5779 257.184 39.9719C257.184 37.366 255.06 35.3451 252.446 35.3451C249.777 35.3451 247.652 37.366 247.652 39.9719C247.652 42.5779 249.777 44.6518 252.446 44.6518ZM248.197 75.3905H256.641V48.7999H248.197V75.3905Z" fill="#1A202C"/>
<path d="M261.553 88.1538H269.832V72.7314C271.414 74.7523 275.007 76.135 278.768 76.135C286.882 76.135 291.785 70.0724 291.566 61.6697C291.349 53.1075 286.284 47.949 278.713 47.949C274.845 47.949 271.197 49.5976 269.67 52.044L269.234 48.7999H261.553V88.1538ZM269.997 62.0951C269.997 58.1066 272.72 55.4476 276.643 55.4476C280.618 55.4476 283.124 58.1597 283.124 62.0951C283.124 66.0306 280.618 68.7428 276.643 68.7428C272.72 68.7428 269.997 66.0837 269.997 62.0951Z" fill="#1A202C"/>
<path d="M292.461 66.9878C292.678 72.3591 297.037 76.0817 303.9 76.0817C310.491 76.0817 315.067 72.6781 315.067 67.2006C315.067 63.2652 312.668 60.6593 308.201 59.5958L303.354 58.4256C301.61 58.0002 300.523 57.5749 300.523 56.1922C300.523 54.8095 301.665 53.9052 303.354 53.9052C305.261 53.9052 306.513 55.1284 306.458 56.9367H314.032C313.812 51.4059 309.511 47.949 303.518 47.949C297.471 47.949 292.952 51.459 292.952 56.777C292.952 60.3403 294.967 63.2652 300.359 64.6479L305.152 65.8709C306.568 66.2432 307.166 66.8814 307.166 67.7856C307.166 69.115 305.915 69.966 303.79 69.966C301.339 69.966 300.032 68.8491 300.032 66.9878H292.461Z" fill="#1A202C"/>
<path d="M327.904 76.0817C331.229 76.0817 334.55 74.5929 336.239 72.4123L336.785 75.3905H344.682V48.8H336.293V62.6271C336.293 66.6155 335.094 68.7961 331.229 68.7961C328.231 68.7961 326.271 67.4665 326.271 62.5207V48.8H317.882V65.4987C317.882 71.8274 321.478 76.0817 327.904 76.0817Z" fill="#1A202C"/>
<path d="M357.984 75.3905V60.8721C357.984 56.4048 360.435 55.1285 362.832 55.1285C365.5 55.1285 367.243 56.724 367.243 60.0212V75.3905H375.523V60.8721C375.523 56.3517 377.919 55.0754 380.316 55.0754C382.984 55.0754 384.782 56.6707 384.782 60.0212V75.3905H392.954V58.0003C392.954 51.9377 389.685 47.8959 382.657 47.8959C378.737 47.8959 375.523 49.7573 374.106 52.6289C372.473 49.7573 369.64 47.8959 365.119 47.8959C362.124 47.8959 359.346 49.2253 357.712 51.3526L357.386 48.8H349.54V75.3905H357.984Z" fill="#1A202C"/>
<path fill-rule="evenodd" clip-rule="evenodd" d="M113.446 18.9341C104.447 18.9341 95.9128 22.8369 90.1515 29.5868L69.6554 53.6009L81.4907 36.2674L61.845 44.488C59.35 45.532 58.724 48.7057 60.6432 50.5798L66.9654 56.7522L63.7375 60.5342L70.8389 67.4674L74.7122 64.3159L81.0344 70.4885C82.9535 72.3623 86.2044 71.7512 87.2735 69.3154L95.6931 50.1342L77.9401 61.6897L102.536 41.678C109.449 36.0531 113.446 27.7206 113.446 18.9341ZM93.9181 38.0012C95.8789 39.9157 99.0582 39.9157 101.019 38.0012C102.98 36.0865 102.98 32.9824 101.019 31.0679C99.0582 29.1532 95.8789 29.1532 93.9181 31.0679C91.957 32.9824 91.957 36.0865 93.9181 38.0012Z" fill="#1A202C"/>
<path opacity="0.6" d="M9.34766 57.6706C14.0495 73.3988 42.6359 72.5788 62.2487 62.7201C49.1157 69.1275 18.0484 70.3512 9.34766 57.6706Z" fill="#1A202C"/>
<path opacity="0.6" d="M66.4105 111.283C53.1667 116.651 58.5931 87.8707 64.9133 74.382C60.3063 86.3713 56.3737 112.801 68.2307 109.851L67.5302 110.497C67.0998 110.815 66.7833 111.036 66.4105 111.283Z" fill="#1A202C"/>
</svg>
