<svg width="260" height="112" viewBox="0 0 260 112" fill="none" xmlns="http://www.w3.org/2000/svg">
<path d="M119.235 92.2727H125.98V67.0638H119.235V92.2727ZM119.235 63.1326H125.98V57.1375H119.235V63.1326Z" fill="#1A202C"/>
<path d="M130.326 100.528H137.071V89.4227H137.171C138.609 91.5847 140.94 93.0098 144.51 93.0098C151.057 93.0098 155.52 87.8502 155.52 79.6928C155.52 71.8303 151.206 66.3759 144.461 66.3759C140.989 66.3759 138.609 67.9975 136.972 70.2086H136.823V67.0639H130.326V100.528ZM143.072 87.4569C139.055 87.4569 136.922 84.4595 136.922 79.8893C136.922 75.3686 138.609 71.7812 142.824 71.7812C146.99 71.7812 148.676 75.1227 148.676 79.8893C148.676 84.656 146.494 87.4569 143.072 87.4569Z" fill="#1A202C"/>
<path d="M168.975 93.0098C175.323 93.0098 179.687 89.9631 179.687 84.9016C179.687 79.0048 174.976 77.8256 170.711 76.9411C167.09 76.2039 163.718 76.0072 163.718 73.8452C163.718 72.027 165.454 71.044 168.082 71.044C170.959 71.044 172.695 72.027 172.992 74.7297H179.092C178.596 69.6683 174.877 66.3759 168.182 66.3759C162.379 66.3759 157.816 68.9803 157.816 74.4347C157.816 79.9385 162.28 81.1671 166.842 82.0516C170.314 82.7394 173.538 82.9853 173.538 85.3932C173.538 87.1622 171.851 88.2923 168.876 88.2923C165.851 88.2923 163.767 87.0148 163.321 84.1154H157.072C157.469 89.4718 161.585 93.0098 168.975 93.0098Z" fill="#1A202C"/>
<path d="M205.295 92.2727V67.0638H198.551V81.6092C198.551 84.9508 196.617 87.3095 193.442 87.3095C190.566 87.3095 189.227 85.6879 189.227 82.7394V67.0638H182.532V83.8697C182.532 89.3733 185.706 92.9607 191.36 92.9607C194.93 92.9607 196.914 91.6338 198.65 89.3242H198.799V92.2727H205.295Z" fill="#1A202C"/>
<path d="M209.658 92.2727H216.403V77.6288C216.403 74.2873 218.238 72.1253 220.966 72.1253C223.446 72.1253 224.884 73.5993 224.884 76.4496V92.2727H231.629V77.6288C231.629 74.2873 233.365 72.1253 236.191 72.1253C238.671 72.1253 240.109 73.5993 240.109 76.4496V92.2727H246.854V75.3194C246.854 69.8156 243.829 66.3759 238.473 66.3759C235.249 66.3759 232.571 68.0466 230.835 70.7984H230.736C229.496 68.1449 226.917 66.3759 223.694 66.3759C220.172 66.3759 217.693 68.1449 216.304 70.4545H216.155V67.0639H209.658V92.2727Z" fill="#1A202C"/>
<path d="M119.335 49.0955H126.079V13.9603H119.335V49.0955Z" fill="#1A202C"/>
<path d="M142.572 49.8327C150.457 49.8327 155.863 44.0341 155.863 36.5157C155.863 28.9973 150.457 23.1987 142.572 23.1987C134.686 23.1987 129.28 28.9973 129.28 36.5157C129.28 44.0341 134.686 49.8327 142.572 49.8327ZM142.572 44.7221C138.406 44.7221 136.125 41.4297 136.125 36.5157C136.125 31.6017 138.406 28.2602 142.572 28.2602C146.688 28.2602 149.019 31.6017 149.019 36.5157C149.019 41.4297 146.688 44.7221 142.572 44.7221Z" fill="#1A202C"/>
<path d="M170.207 57.6953C173.976 57.6953 177.249 56.8107 179.382 54.845C181.266 53.1251 182.407 50.7172 182.407 47.1792V23.8867H175.91V26.5403H175.811C174.273 24.4272 171.943 23.1987 168.768 23.1987C162.321 23.1987 157.758 28.0145 157.758 35.5329C157.758 43.1496 163.313 47.5722 168.967 47.5722C172.191 47.5722 174.125 46.2947 175.613 44.6239H175.761V47.3757C175.761 50.8154 173.926 52.6336 170.108 52.6336C166.983 52.6336 165.545 51.4052 164.999 49.8327H158.304C158.998 54.7467 163.264 57.6953 170.207 57.6953ZM170.108 42.216C166.636 42.216 164.355 39.7099 164.355 35.4347C164.355 31.2086 166.636 28.555 170.058 28.555C174.125 28.555 176.108 31.6999 176.108 35.3856C176.108 39.1201 174.373 42.216 170.108 42.216Z" fill="#1A202C"/>
<path d="M198.801 49.8327C206.687 49.8327 212.093 44.0341 212.093 36.5157C212.093 28.9973 206.687 23.1987 198.801 23.1987C190.916 23.1987 185.51 28.9973 185.51 36.5157C185.51 44.0341 190.916 49.8327 198.801 49.8327ZM198.801 44.7221C194.635 44.7221 192.354 41.4297 192.354 36.5157C192.354 31.6017 194.635 28.2602 198.801 28.2602C202.918 28.2602 205.249 31.6017 205.249 36.5157C205.249 41.4297 202.918 44.7221 198.801 44.7221Z" fill="#1A202C"/>
<path d="M218.005 39.4642H247.167V33.7148H218.005V39.4642Z" fill="#1A202C"/>
<path d="M249.305 62.7816C249.305 61.6507 250.23 60.7339 251.372 60.7339H255.504C256.646 60.7339 257.571 61.6507 257.571 62.7816C257.571 63.9122 256.646 64.829 255.504 64.829H251.372C250.23 64.829 249.305 63.9122 249.305 62.7816Z" fill="#1A202C"/>
<path fill-rule="evenodd" clip-rule="evenodd" d="M51.1199 6.14838C78.366 6.14838 100.453 28.0333 100.453 55.0297C100.453 82.0262 78.366 103.911 51.1199 103.911C23.8739 103.911 1.78662 82.0262 1.78662 55.0297C1.78662 28.0333 23.8739 6.14838 51.1199 6.14838ZM49.3368 9.80614C43.7088 10.5909 38.3498 15.0719 34.1897 22.5662C32.983 24.74 31.8942 27.1416 30.9453 29.7347C36.6019 28.3263 42.8157 27.4959 49.3368 27.3675V9.80614ZM26.7759 30.9087C27.9557 27.2397 29.3992 23.864 31.065 20.8633C33.1271 17.1481 35.5745 13.9399 38.332 11.4759C23.3374 15.7908 11.5182 27.5017 7.1634 42.3589C9.65022 39.6267 12.8881 37.2017 16.6376 35.1585C19.666 33.508 23.0729 32.0777 26.7759 30.9087ZM25.5909 35.0399C24.1696 40.6447 23.3315 46.8015 23.2019 53.2629H5.4782C6.27027 47.6863 10.7926 42.3763 18.3562 38.2546C20.5501 37.059 22.974 35.9802 25.5909 35.0399ZM26.769 53.2629C26.9163 46.2115 27.9407 39.5915 29.6358 33.7424C35.539 32.0628 42.2205 31.0476 49.3368 30.9016V38.5342C46.6819 45.2686 41.2671 50.6333 34.4702 53.2629H26.769ZM23.2019 56.7965H5.4782C6.27027 62.3732 10.7926 67.6829 18.3562 71.8048C20.5501 73.0005 22.974 74.0793 25.5909 75.0195C24.1696 69.4148 23.3315 63.2579 23.2019 56.7965ZM29.6358 76.3171C27.9407 70.4679 26.9163 63.8479 26.769 56.7965H34.4702C41.2671 59.4261 46.6822 64.7909 49.3368 71.5252V79.1578C42.2205 79.0119 35.539 77.9966 29.6358 76.3171ZM26.7759 79.1507C23.0729 77.9817 19.666 76.5515 16.6376 74.901C12.8881 72.8577 9.65022 70.4327 7.1634 67.7005C11.5182 82.5578 23.3374 94.2688 38.332 98.5835C35.5745 96.1194 33.1271 92.9113 31.065 89.1961C29.3992 86.1955 27.9557 82.8198 26.7759 79.1507ZM49.3368 100.253C43.7088 99.4685 38.3498 94.9875 34.1897 87.4933C32.983 85.3195 31.8942 82.9178 30.9453 80.3249C36.6019 81.7331 42.8157 82.5636 49.3368 82.6919V100.253ZM63.9079 98.5835C66.6654 96.1194 69.1128 92.9113 71.1752 89.1961C72.8407 86.1955 74.2842 82.8198 75.464 79.1507C79.1669 77.9817 82.5739 76.5515 85.6025 74.901C89.3518 72.8577 92.5898 70.4327 95.0764 67.7005C90.7218 82.5578 78.9025 94.2688 63.9079 98.5835ZM71.2946 80.3249C70.3456 82.9178 69.2569 85.3195 68.0502 87.4933C63.8904 94.9875 58.5313 99.4685 52.9031 100.253V82.6919C59.4242 82.5636 65.638 81.7331 71.2946 80.3249ZM76.649 75.0195C79.2658 74.0793 81.6898 73.0005 83.8837 71.8048C91.4472 67.6829 95.9696 62.3732 96.7617 56.7965H79.0379C78.9084 63.2579 78.0703 69.4148 76.649 75.0195ZM75.4711 56.7965C75.3239 63.8479 74.2992 70.4679 72.6041 76.3171C66.7009 77.9966 60.0197 79.0119 52.9031 79.1578V71.5309C55.557 64.794 60.973 59.4269 67.7719 56.7965H75.4711ZM79.0379 53.2629H96.7617C95.9696 47.6863 91.4472 42.3763 83.8837 38.2546C81.6898 37.059 79.2658 35.9802 76.649 35.0399C78.0703 40.6447 78.9084 46.8015 79.0379 53.2629ZM72.6041 33.7424C74.2992 39.5915 75.3239 46.2115 75.4711 53.2629H67.7719C60.973 50.6326 55.557 45.2654 52.9031 38.5286V30.9016C60.0197 31.0476 66.7009 32.0628 72.6041 33.7424ZM75.464 30.9087C79.1669 32.0777 82.5739 33.508 85.6025 35.1585C89.3518 37.2017 92.5898 39.6267 95.0764 42.3589C90.7218 27.5017 78.9025 15.7908 63.9079 11.4759C66.6654 13.9399 69.1128 17.1481 71.1752 20.8633C72.8407 23.864 74.2842 27.2397 75.464 30.9087ZM52.9031 9.80614C58.5313 10.5909 63.8904 15.0719 68.0502 22.5662C69.2569 24.74 70.3456 27.1416 71.2946 29.7347C65.638 28.3263 59.4242 27.4959 52.9031 27.3675V9.80614Z" fill="#1A202C"/>
</svg>
